<svg width="100" height="40" viewBox="0 0 100 40" fill="none" xmlns="http://www.w3.org/2000/svg">
<rect width="100" height="40" fill="#C0C0C0"/>
<path d="M50.5 7C43.5937 7 38 12.739 38 19.8172C38 25.4813 41.5812 30.2845 46.5469 31.9779C47.1719 32.0985 47.401 31.7018 47.401 31.3616C47.401 31.0572 47.3906 30.2508 47.3854 29.1823C43.9083 29.9551 43.175 27.4627 43.175 27.4627C42.6062 25.9834 41.7844 25.5877 41.7844 25.5877C40.6521 24.7932 41.8719 24.8095 41.8719 24.8095C43.1271 24.8986 43.7865 26.1301 43.7865 26.1301C44.901 28.09 46.7125 27.5236 47.4271 27.1964C47.5396 26.3671 47.8615 25.803 48.2188 25.4823C45.4427 25.1617 42.525 24.0596 42.525 19.1487C42.525 17.7499 43.0094 16.6063 43.8115 15.7097C43.6708 15.3858 43.249 14.0825 43.9208 12.3173C43.9208 12.3173 44.9677 11.9738 47.3583 13.6314C48.3583 13.3467 49.4208 13.2054 50.4833 13.1988C51.5458 13.2054 52.6083 13.3467 53.6083 13.6314C55.9833 11.9738 57.0302 12.3173 57.0302 12.3173C57.7021 14.0825 57.2802 15.3858 57.1552 15.7097C57.9521 16.6063 58.4365 17.7499 58.4365 19.1487C58.4365 24.0726 55.5146 25.1563 52.7333 25.4715C53.1708 25.8562 53.5771 26.6421 53.5771 27.8432C53.5771 29.5583 53.5615 30.9366 53.5615 31.3529C53.5615 31.6888 53.7802 32.0899 54.4208 31.9616C59.4219 30.279 63 25.4725 63 19.8172C63 12.739 57.4031 7 50.5 7Z" fill="black"/>
</svg>
