<svg width="45" height="35" viewBox="0 0 45 35" fill="none" xmlns="http://www.w3.org/2000/svg">
<rect width="45" height="35" rx="5" fill="#C0C0C0"/>
<path d="M22.5 5C15.5937 5 10 10.5 10 17.2833C10 22.7115 13.5812 27.3146 18.5469 28.9375C19.1719 29.0531 19.401 28.6729 19.401 28.3469C19.401 28.0552 19.3906 27.2823 19.3854 26.2583C15.9083 26.999 15.175 24.6104 15.175 24.6104C14.6062 23.1927 13.7844 22.8135 13.7844 22.8135C12.6521 22.0521 13.8719 22.0677 13.8719 22.0677C15.1271 22.1531 15.7865 23.3333 15.7865 23.3333C16.901 25.2115 18.7125 24.6687 19.4271 24.3552C19.5396 23.5604 19.8615 23.0198 20.2188 22.7125C17.4427 22.4052 14.525 21.349 14.525 16.6427C14.525 15.3021 15.0094 14.2062 15.8115 13.3469C15.6708 13.0365 15.249 11.7875 15.9208 10.0958C15.9208 10.0958 16.9677 9.76667 19.3583 11.3552C20.3583 11.0823 21.4208 10.9469 22.4833 10.9406C23.5458 10.9469 24.6083 11.0823 25.6083 11.3552C27.9833 9.76667 29.0302 10.0958 29.0302 10.0958C29.7021 11.7875 29.2802 13.0365 29.1552 13.3469C29.9521 14.2062 30.4365 15.3021 30.4365 16.6427C30.4365 21.3615 27.5146 22.4 24.7333 22.7021C25.1708 23.0708 25.5771 23.824 25.5771 24.975C25.5771 26.6187 25.5615 27.9396 25.5615 28.3385C25.5615 28.6604 25.7802 29.0448 26.4208 28.9219C31.4219 27.3094 35 22.7031 35 17.2833C35 10.5 29.4031 5 22.5 5V5Z" fill="black"/>
</svg>
