<svg width="748" height="539" viewBox="0 0 748 539" fill="none" xmlns="http://www.w3.org/2000/svg">
<g filter="url(#filter0_d)">
<path d="M297.56 303.54H552.073V524.565H297.56V303.54Z" fill="black"/>
<path d="M734.02 524.565L13 524.936" stroke="black" stroke-width="2" stroke-miterlimit="10"/>
<path d="M389.574 83.6098C389.574 83.6098 347.228 84.7611 340.234 87.3056C333.24 89.8501 330.113 108.045 330.113 108.045L362.992 118.38L387.584 116.987L406.092 118.294L395.758 91.2291L389.574 83.6098Z" fill="#2F2E41"/>
<path d="M387.747 69.7147C387.747 69.7147 384.961 80.4754 391.145 88.0947C397.328 95.714 364.563 122.864 364.563 122.864L347.277 119.893C347.277 119.893 351.087 86.8294 345.97 78.4568C340.852 70.0842 387.747 69.7147 387.747 69.7147Z" fill="#F5C68E"/>
<path opacity="0.1" d="M387.747 69.7147C387.747 69.7147 384.961 80.4754 391.145 88.0947C397.328 95.714 364.563 122.864 364.563 122.864L347.277 119.893C347.277 119.893 351.087 86.8294 345.97 78.4568C340.852 70.0842 387.747 69.7147 387.747 69.7147Z" fill="black"/>
<path d="M272.79 384.334L310.928 434.911L284.901 450.107L249.079 391.498L272.79 384.334Z" fill="#F5C68E"/>
<path d="M299.543 435.764C299.543 435.764 313.587 419.445 312.962 423.084C312.336 426.723 322.955 457.584 313.075 460.569C303.196 463.554 218.475 471.472 217.309 461.905C216.143 452.338 242.583 445.643 242.583 445.643C242.583 445.643 258.291 430.547 261.773 432.082C265.256 433.618 299.543 435.764 299.543 435.764Z" fill="white"/>
<path d="M281.347 432.636L250.884 484.535L227.884 471.216L258.603 428.727L281.347 432.636Z" fill="#F5C68E"/>
<path d="M233.259 309.165L242.299 321.959C242.299 321.959 285.399 381.818 280.822 386.651C276.244 391.484 257.182 409.751 247.487 406.211C237.793 402.671 203.35 341.49 203.35 341.49L212.334 305.569L233.259 309.165Z" fill="#292574"/>
<path d="M418.92 297.055C418.92 297.055 409.268 315.065 384.804 321.163C360.34 327.261 334.782 339.728 333.872 339.571C332.962 339.415 330.389 338.036 329.764 341.675C329.138 345.314 322.429 351.654 322.429 351.654C322.429 351.654 295.406 443.483 285.086 443.582C274.766 443.682 253.557 436.29 253.116 433.404C252.676 430.519 284.717 336.743 285.029 334.923L288.782 313.089C288.782 313.089 246.407 319.855 242.456 321.049C238.504 322.243 203.35 341.49 203.35 341.49C203.35 341.49 167.514 315.661 201.033 289.577C234.552 263.493 292.166 244.36 292.166 244.36L312.834 238.546L330.847 237.47L333.5 227.3L376.162 229.761L420.683 248.653L418.92 297.055Z" fill="#25216D"/>
<path d="M362.615 91.1335C344.262 91.1335 329.384 76.2553 329.384 57.902C329.384 39.5488 344.262 24.6705 362.615 24.6705C380.969 24.6705 395.847 39.5488 395.847 57.902C395.847 76.2553 380.969 91.1335 362.615 91.1335Z" fill="#F5C68E"/>
<path d="M392.68 84.612L388.683 83.925C388.683 83.925 381.464 111.72 359.133 116.311C359.133 116.311 348.113 103.111 348.584 100.884C349.054 98.6562 339.857 86.7726 334.967 93.4251C330.077 100.078 336.161 217.266 332.053 219.37C327.945 221.473 319.131 223.705 326.225 231.481C333.318 239.256 361.492 249.719 367.732 246.108C373.973 242.498 386.724 211.907 392.239 201.615C397.754 191.324 406.582 156.312 406.582 156.312C406.582 156.312 417.855 117.975 410.918 109.289C403.981 100.604 392.68 84.612 392.68 84.612Z" fill="black"/>
<path d="M360.876 228.883C361.618 237.046 362.89 245.152 364.682 253.151C366.312 259.659 368.21 263.588 370.375 263.421C375.901 263.008 378.412 271.112 379.707 280.455C381.092 290.368 381.092 301.676 381.851 305.672C382.855 310.952 389.285 314.982 402.134 313.799C409.786 312.928 417.295 311.086 424.482 308.318C441.829 302.011 441.315 250.862 438.413 212.909C436.638 189.645 433.97 171.327 433.97 171.327C433.97 171.327 439.239 155.61 440.925 144.837C441.26 142.872 441.428 140.881 441.427 138.888C441.17 129.477 423.991 104.048 413.609 88.2081C403.216 72.368 389.04 83.9886 389.04 83.9886L393.974 98.8798C393.974 98.8798 386.327 110.679 386.271 121.909C386.215 133.139 367.964 141.243 361.411 146.679C357.292 150.095 357.393 195.695 360.876 228.883Z" fill="#3B8235"/>
<path d="M346.446 89.3099C346.446 89.3099 345.248 90.7255 339.765 90.0349C333.189 89.2066 324.147 91.482 322.046 97.7607C318.194 109.275 307.333 156.113 307.333 156.113C307.333 156.113 302.813 209.661 300.78 221.488C298.747 233.314 299.756 243.791 297.752 250.003C295.748 256.215 317.539 238.418 325.571 240.735C333.602 243.052 338.762 213.03 337.753 202.553C336.744 192.077 335.891 180.691 338.677 169.93C341.463 159.169 336.524 130.69 336.709 124.165C336.893 117.64 354.418 101.196 346.446 89.3099Z" fill="#3B8235"/>
<path d="M322.932 255.736C322.932 255.736 287.746 274.931 284.379 302.253C281.012 329.575 331.441 275.799 331.441 275.799L322.932 255.736Z" fill="#F5C68E"/>
<path d="M302.847 236.361C302.847 236.361 292.065 290.706 275.269 287.819C258.474 284.932 284.651 233.233 284.651 233.233L302.847 236.361Z" fill="#F5C68E"/>
<path d="M245.327 473.277C245.327 473.277 253.927 483.185 256.059 481.678C258.191 480.172 263.095 500.684 258.674 504.607C254.254 508.53 237.224 514.97 237.039 521.494C236.854 528.019 191.182 526.725 189.547 519.888C187.912 513.051 195.276 497.457 200.45 494.6C205.624 491.742 224.756 465.445 224.756 465.445C224.756 465.445 239.74 467.634 245.327 473.277Z" fill="white"/>
<path opacity="0.1" d="M328.537 288.972C336.697 283.212 359.48 281.784 379.707 280.455C388.582 279.886 396.965 279.328 403.406 278.424C409.613 277.564 415.194 271.893 420.151 263.443C427.663 250.639 433.736 231.439 438.413 212.909C436.638 189.645 433.97 171.327 433.97 171.327C433.97 171.327 439.239 155.61 440.925 144.837C439.736 143.184 438.206 141.805 436.437 140.796C414.982 131.587 394.498 222.218 391.897 236.44C391.853 236.674 391.819 236.898 391.786 237.087C390.524 244.41 376.894 250.673 364.682 253.151C357.158 254.68 350.159 254.781 346.933 252.793C338.461 247.592 312.406 268.41 310.431 269.002C308.455 269.605 316.816 297.266 328.537 288.972Z" fill="#3B8235"/>
<path d="M436.434 135.217C436.434 135.217 452.027 142.581 445.176 176.995C438.324 211.41 424.521 269.918 403.412 272.847C382.302 275.775 340.269 275.107 328.541 283.394C316.814 291.681 308.456 264.019 310.432 263.422C312.408 262.825 338.464 242.014 346.936 247.217C355.408 252.419 389.751 243.336 391.784 231.509C393.817 219.683 414.628 125.85 436.434 135.217Z" fill="#3B8235"/>
<path d="M324.064 118.714L306.926 158.481C306.926 158.481 305.201 157.62 303.197 163.832C301.192 170.044 300.254 175.502 296.743 179.582C293.232 183.662 277.609 241.858 277.14 244.587C276.671 247.316 298.717 256.725 303.643 249.142C308.57 241.559 324.064 118.714 324.064 118.714Z" fill="#3B8235"/>
<path d="M381.522 57.4394C380.248 57.0994 380.061 55.4084 380.019 54.091C379.79 47.0356 375.542 39.796 368.788 37.742C366.196 37.0314 363.483 36.882 360.829 37.304C357.041 37.8086 353.383 39.0289 350.051 40.8999C348.292 41.8888 346.567 43.0799 344.571 43.3819C343.254 43.5814 337.548 45.2402 336.236 45.4736C333.352 45.9869 330.671 48.5679 327.902 47.6074C325.254 46.6886 324.668 43.2596 324.604 40.4571C324.458 34.0726 329.305 25.2361 333.574 20.4865C336.813 16.8821 341.692 15.2183 346.46 14.3532C352.03 13.4581 357.675 13.1148 363.313 13.328C370.944 13.4641 378.786 14.0531 385.668 17.355C392.549 20.6569 398.329 27.2285 398.659 34.8537C398.727 36.4421 398.563 38.0371 398.697 39.6214C399.023 43.4862 401.075 46.9771 402.038 50.7342C402.726 53.491 402.829 56.3614 402.34 59.1603C401.851 61.9592 400.78 64.6246 399.198 66.9846C396.644 70.7428 392.63 74.142 392.778 78.6834L387.241 72.9465C386.414 72.315 385.828 71.4189 385.582 70.4079C385.336 69.3968 385.444 68.3319 385.888 67.3909L387.848 59.7457C388.352 58.3809 388.411 56.8917 388.018 55.4911C385.917 50.299 383.645 58.0064 381.522 57.4394Z" fill="black"/>
</g>
<defs>
<filter id="filter0_d" x="-0.000549316" y="0.266678" width="747.021" height="538.669" filterUnits="userSpaceOnUse" color-interpolation-filters="sRGB">
<feFlood flood-opacity="0" result="BackgroundImageFix"/>
<feColorMatrix in="SourceAlpha" type="matrix" values="0 0 0 0 0 0 0 0 0 0 0 0 0 0 0 0 0 0 127 0"/>
<feOffset/>
<feGaussianBlur stdDeviation="6.5"/>
<feColorMatrix type="matrix" values="0 0 0 0 0 0 0 0 0 0 0 0 0 0 0 0 0 0 1 0"/>
<feBlend mode="normal" in2="BackgroundImageFix" result="effect1_dropShadow"/>
<feBlend mode="normal" in="SourceGraphic" in2="effect1_dropShadow" result="shape"/>
</filter>
</defs>
</svg>
