<svg width="45" height="35" viewBox="0 0 45 35" fill="none" xmlns="http://www.w3.org/2000/svg">
<rect x="0.000244141" y="-0.000640869" width="45" height="35" rx="5" fill="url(#paint0_angular)"/>
<path d="M23.5044 10.0806C19.9596 10.0806 17.0898 12.9535 17.0898 16.4952C17.0898 20.04 19.9627 22.9098 23.5044 22.9098C27.0492 22.9098 29.919 20.0369 29.919 16.4952C29.919 12.9504 27.0461 10.0806 23.5044 10.0806V10.0806ZM23.5044 20.6587C21.2034 20.6587 19.3409 18.7952 19.3409 16.4952C19.3409 14.1952 21.2044 12.3317 23.5044 12.3317C25.8044 12.3317 27.668 14.1952 27.668 16.4952C27.669 18.7952 25.8055 20.6587 23.5044 20.6587V20.6587Z" fill="white"/>
<path d="M28.6544 4.07853C26.3544 3.97124 20.6575 3.97644 18.3554 4.07853C16.3325 4.17332 14.5482 4.66186 13.1096 6.1004C10.7054 8.50457 11.0127 11.7442 11.0127 16.4952C11.0127 21.3577 10.7419 24.5223 13.1096 26.89C15.5232 29.3025 18.8096 28.9869 23.5044 28.9869C28.3211 28.9869 29.9836 28.99 31.6867 28.3306C34.0023 27.4317 35.7502 25.3619 35.9211 21.6442C36.0294 19.3431 36.0232 13.6473 35.9211 11.3452C35.7148 6.95666 33.3596 4.29519 28.6544 4.07853V4.07853ZM32.295 25.2994C30.719 26.8754 28.5325 26.7348 23.4742 26.7348C18.2659 26.7348 16.1773 26.8119 14.6534 25.2837C12.8982 23.5369 13.2159 20.7317 13.2159 16.4785C13.2159 10.7233 12.6252 6.57853 18.4013 6.2827C19.7284 6.23582 20.119 6.2202 23.4596 6.2202L23.5065 6.25145C29.0575 6.25145 33.4127 5.6702 33.6742 11.4452C33.7336 12.7629 33.7471 13.1587 33.7471 16.4942C33.7461 21.6421 33.844 23.7431 32.295 25.2994V25.2994Z" fill="white"/>
<path d="M30.1732 11.3264C31.001 11.3264 31.6721 10.6553 31.6721 9.82748C31.6721 8.99963 31.001 8.32852 30.1732 8.32852C29.3453 8.32852 28.6742 8.99963 28.6742 9.82748C28.6742 10.6553 29.3453 11.3264 30.1732 11.3264Z" fill="white"/>
<defs>
<radialGradient id="paint0_angular" cx="0" cy="0" r="1" gradientUnits="userSpaceOnUse" gradientTransform="translate(16 35) rotate(-166.504) scale(77.1298 59.0823)">
<stop offset="0.232735" stop-color="#DD2A7B"/>
<stop offset="0.415527" stop-color="#515BD4"/>
<stop offset="0.820796" stop-color="#8134A4"/>
<stop offset="0.912374" stop-color="#FEDA77"/>
<stop offset="1" stop-color="#F58529"/>
</radialGradient>
</defs>
</svg>
