<svg width="100" height="40" viewBox="0 0 100 40" fill="none" xmlns="http://www.w3.org/2000/svg">
<rect x="0.000244141" y="-0.000640869" width="100" height="40" fill="url(#paint0_angular)"/>
<path d="M50.5044 14.0805C46.9596 14.0805 44.0898 16.9534 44.0898 20.495C44.0898 24.0397 46.9627 26.9094 50.5044 26.9094C54.0492 26.9094 56.919 24.0366 56.919 20.495C56.919 16.9502 54.0461 14.0805 50.5044 14.0805V14.0805ZM50.5044 24.6584C48.2034 24.6584 46.3409 22.7949 46.3409 20.495C46.3409 18.195 48.2044 16.3315 50.5044 16.3315C52.8044 16.3315 54.668 18.195 54.668 20.495C54.669 22.7949 52.8055 24.6584 50.5044 24.6584V24.6584Z" fill="white"/>
<path d="M55.6544 8.07853C53.3544 7.97124 47.6575 7.97644 45.3554 8.07853C43.3325 8.17332 41.5482 8.66185 40.1096 10.1004C37.7054 12.5045 38.0127 15.744 38.0127 20.495C38.0127 25.3574 37.7419 28.5219 40.1096 30.8896C42.5232 33.302 45.8096 32.9864 50.5044 32.9864C55.3211 32.9864 56.9836 32.9895 58.6867 32.3302C61.0023 31.4312 62.7502 29.3615 62.9211 25.6438C63.0294 23.3428 63.0232 17.6471 62.9211 15.3451C62.7148 10.9566 60.3596 8.29519 55.6544 8.07853V8.07853ZM59.295 29.299C57.719 30.875 55.5325 30.7344 50.4742 30.7344C45.2659 30.7344 43.1773 30.8115 41.6534 29.2834C39.8982 27.5365 40.2159 24.7314 40.2159 20.4783C40.2159 14.7232 39.6252 10.5785 45.4013 10.2827C46.7284 10.2358 47.119 10.2202 50.4596 10.2202L50.5065 10.2514C56.0575 10.2514 60.4127 9.67017 60.6742 15.4451C60.7336 16.7627 60.7471 17.1586 60.7471 20.4939C60.7461 25.6418 60.844 27.7428 59.295 29.299V29.299Z" fill="white"/>
<path d="M57.1732 15.3263C58.001 15.3263 58.6721 14.6552 58.6721 13.8274C58.6721 12.9995 58.001 12.3284 57.1732 12.3284C56.3453 12.3284 55.6742 12.9995 55.6742 13.8274C55.6742 14.6552 56.3453 15.3263 57.1732 15.3263Z" fill="white"/>
<defs>
<radialGradient id="paint0_angular" cx="0" cy="0" r="1" gradientUnits="userSpaceOnUse" gradientTransform="translate(35.5553 40.0001) rotate(-172.964) scale(167.931 68.917)">
<stop offset="0.232735" stop-color="#DD2A7B"/>
<stop offset="0.415527" stop-color="#515BD4"/>
<stop offset="0.820796" stop-color="#8134A4"/>
<stop offset="0.912374" stop-color="#FEDA77"/>
<stop offset="1" stop-color="#F58529"/>
</radialGradient>
</defs>
</svg>
