<svg width="45" height="35" viewBox="0 0 45 35" fill="none" xmlns="http://www.w3.org/2000/svg">
<rect width="45" height="35" rx="5" fill="#21567E"/>
<path d="M33.9938 30V29.9989H34V20.8302C34 16.3448 33.0344 12.8896 27.7906 12.8896C25.2698 12.8896 23.5781 14.2729 22.8875 15.5844H22.8146V13.3083H17.8427V29.9989H23.0198V21.7344C23.0198 19.5583 23.4323 17.4542 26.1271 17.4542C28.7823 17.4542 28.8219 19.9375 28.8219 21.874V30H33.9938Z" fill="white"/>
<path d="M9.4125 13.3094H14.5958V30H9.4125V13.3094Z" fill="white"/>
<path d="M12.0021 5C10.3448 5 9 6.34479 9 8.00208C9 9.65938 10.3448 11.0323 12.0021 11.0323C13.6594 11.0323 15.0042 9.65938 15.0042 8.00208C15.0031 6.34479 13.6583 5 12.0021 5V5Z" fill="white"/>
</svg>
