<svg width="100" height="40" viewBox="0 0 100 40" fill="none" xmlns="http://www.w3.org/2000/svg">
<rect width="100" height="40" fill="#21567E"/>
<path d="M61.9938 32V31.9989H62V22.8302C62 18.3448 61.0344 14.8896 55.7906 14.8896C53.2698 14.8896 51.5781 16.2729 50.8875 17.5844H50.8146V15.3083H45.8427V31.9989H51.0198V23.7344C51.0198 21.5583 51.4323 19.4542 54.1271 19.4542C56.7823 19.4542 56.8219 21.9375 56.8219 23.874V32H61.9938Z" fill="white"/>
<path d="M37.4125 15.3094H42.5958V32H37.4125V15.3094Z" fill="white"/>
<path d="M40.0021 7C38.3448 7 37 8.34479 37 10.0021C37 11.6594 38.3448 13.0323 40.0021 13.0323C41.6594 13.0323 43.0042 11.6594 43.0042 10.0021C43.0031 8.34479 41.6583 7 40.0021 7Z" fill="white"/>
</svg>
