<svg width="45" height="35" viewBox="0 0 45 35" fill="none" xmlns="http://www.w3.org/2000/svg">
<rect width="45" height="35" rx="5" fill="#25D366"/>
<path d="M28.2364 18.9036L28.2271 18.9817C25.9364 17.84 25.6969 17.6879 25.401 18.1317C25.1958 18.439 24.5979 19.1359 24.4177 19.3421C24.2354 19.5452 24.0542 19.5609 23.7448 19.4202C23.4323 19.264 22.4292 18.9359 21.2417 17.8734C20.3167 17.0452 19.6958 16.0296 19.5125 15.7171C19.2073 15.19 19.8458 15.115 20.4271 14.015C20.5312 13.7963 20.4781 13.6244 20.401 13.4692C20.3229 13.3129 19.701 11.7817 19.4406 11.1713C19.1906 10.5629 18.9333 10.64 18.7406 10.64C18.1406 10.5879 17.7021 10.5963 17.3156 10.9984C15.6344 12.8463 16.0583 14.7525 17.4969 16.7796C20.3239 20.4796 21.8302 21.1609 24.5844 22.1067C25.3281 22.3432 26.0062 22.3098 26.5427 22.2327C27.1406 22.138 28.3833 21.4817 28.6427 20.7473C28.9083 20.0129 28.9083 19.4036 28.8302 19.263C28.7531 19.1223 28.5489 19.0442 28.2364 18.9036V18.9036Z" fill="white"/>
<path d="M31.375 7.59316C23.3656 -0.149548 10.1104 5.46607 10.1052 16.389C10.1052 18.5723 10.6771 20.7015 11.7667 22.5817L10 29.0004L16.599 27.2796C24.8333 31.7275 34.9958 25.8213 35 16.3952C35 13.0869 33.7083 9.97336 31.3594 7.63378L31.375 7.59316ZM32.9187 16.3609C32.9125 24.3119 24.1844 29.2775 17.2812 25.2192L16.9062 24.9963L13 26.0119L14.0469 22.215L13.7979 21.8244C9.50208 14.9859 14.4375 6.04837 22.575 6.04837C25.3396 6.04837 27.9344 7.12649 29.8885 9.07961C31.8417 11.0161 32.9187 13.6109 32.9187 16.3609V16.3609Z" fill="white"/>
</svg>
